/* XPM */
static char *bitcoin32_result_xpm[] = {
/* width height num_colors chars_per_pixel */
"    32    32      256            2",
/* colors */
"`` c #ec0204",
"`. c #f4828c",
"`# c #ec4254",
"`a c #e42244",
"`b c #f4cad4",
"`c c #dc6a84",
"`d c #e4163c",
"`e c #fce6e4",
"`f c #dc365c",
"`g c #f4a2a4",
"`h c #f4163c",
"`i c #f4dadc",
"`j c #f4727c",
"`k c #ec525c",
"`l c #ec0224",
"`m c #e496ac",
"`n c #e41a3c",
"`o c #e42e54",
"`p c #f4d2dc",
"`q c #ec626c",
"`r c #fcf6f4",
"`s c #dc3a5c",
"`t c #dc5a74",
"`u c #ec1a3c",
"`v c #ec223c",
"`w c #f4b2b4",
"`x c #ec0e34",
"`y c #f4969c",
"`z c #ec6a74",
"`A c #fccacc",
"`B c #fceef4",
"`C c #ec3244",
"`D c #ec9eac",
"`E c #ec5a64",
"`F c #ec0214",
"`G c #f48a8c",
"`H c #ec4a5c",
"`I c #f4aaac",
"`J c #fc163c",
"`K c #fce2e4",
"`L c #f47a84",
"`M c #ec0234",
"`N c #fcd2d4",
"`O c #fcfefc",
"`P c #ec3a4c",
"`Q c #ec1e3c",
"`R c #e42644",
"`S c #f4ced4",
"`T c #e46a84",
"`U c #ec123c",
"`V c #fceaec",
"`W c #fcdadc",
"`X c #ec5664",
"`Y c #ec9aac",
"`Z c #e41e3c",
"`0 c #ec2a44",
"`1 c #ec666c",
"`2 c #fcfafc",
"`3 c #dc5e7c",
"`4 c #ec2644",
"`5 c #f46a74",
"`6 c #ec364c",
"`7 c #fc1a3c",
"`8 c #ec3e4c",
".` c #ec020c",
".. c #f4868c",
".# c #ec4654",
".a c #fce6ec",
".b c #e43254",
".c c #f4a6ac",
".d c #f4767c",
".e c #ec5264",
".f c #ec022c",
".g c #e49aac",
".h c #f4d6dc",
".i c #fcf6fc",
".j c #dc5a7c",
".k c #ec1a44",
".l c #ec2244",
".m c #f4babc",
".n c #ec0e3c",
".o c #fcced4",
".p c #fcf2f4",
".q c #ec324c",
".r c #ec9eb4",
".s c #ec5e6c",
".t c #ec021c",
".u c #f48e94",
".v c #ec4e5c",
".w c #f4aeb4",
".x c #f47e84",
".y c #ec0634",
".z c #fcd6dc",
".A c #ec1e44",
".B c #e4264c",
".C c #f4cedc",
".D c #e46e8c",
".E c #ec163c",
".F c #fcdee4",
".G c #e41e44",
".H c #ec2e44",
".I c #ec6674",
".J c #f46e74",
".K c #fc1a44",
".L c #ec3e54",
".M c #000000",
".N c #000000",
".O c #000000",
".P c #000000",
".Q c #000000",
".R c #000000",
".S c #000000",
".T c #000000",
".U c #000000",
".V c #000000",
".W c #000000",
".X c #000000",
".Y c #000000",
".Z c #000000",
".0 c #000000",
".1 c #000000",
".2 c #000000",
".3 c #000000",
".4 c #000000",
".5 c #000000",
".6 c #000000",
".7 c #000000",
".8 c #000000",
"#` c #000000",
"#. c #000000",
"## c #000000",
"#a c #000000",
"#b c #000000",
"#c c #000000",
"#d c #000000",
"#e c #000000",
"#f c #000000",
"#g c #000000",
"#h c #000000",
"#i c #000000",
"#j c #000000",
"#k c #000000",
"#l c #000000",
"#m c #000000",
"#n c #000000",
"#o c #000000",
"#p c #000000",
"#q c #000000",
"#r c #000000",
"#s c #000000",
"#t c #000000",
"#u c #000000",
"#v c #000000",
"#w c #000000",
"#x c #000000",
"#y c #000000",
"#z c #000000",
"#A c #000000",
"#B c #000000",
"#C c #000000",
"#D c #000000",
"#E c #000000",
"#F c #000000",
"#G c #000000",
"#H c #000000",
"#I c #000000",
"#J c #000000",
"#K c #000000",
"#L c #000000",
"#M c #000000",
"#N c #000000",
"#O c #000000",
"#P c #000000",
"#Q c #000000",
"#R c #000000",
"#S c #000000",
"#T c #000000",
"#U c #000000",
"#V c #000000",
"#W c #000000",
"#X c #000000",
"#Y c #000000",
"#Z c #000000",
"#0 c #000000",
"#1 c #000000",
"#2 c #000000",
"#3 c #000000",
"#4 c #000000",
"#5 c #000000",
"#6 c #000000",
"#7 c #000000",
"#8 c #000000",
"a` c #000000",
"a. c #000000",
"a# c #000000",
"aa c #000000",
"ab c #000000",
"ac c #000000",
"ad c #000000",
"ae c #000000",
"af c #000000",
"ag c #000000",
"ah c #000000",
"ai c #000000",
"aj c #000000",
"ak c #000000",
"al c #000000",
"am c #000000",
"an c #000000",
"ao c #000000",
"ap c #000000",
"aq c #000000",
"ar c #000000",
"as c #000000",
"at c #000000",
"au c #000000",
"av c #000000",
"aw c #000000",
"ax c #000000",
"ay c #000000",
"az c #000000",
"aA c #000000",
"aB c #000000",
"aC c #000000",
"aD c #000000",
"aE c #000000",
"aF c #000000",
"aG c #000000",
"aH c #000000",
"aI c #000000",
"aJ c #000000",
"aK c #000000",
"aL c #000000",
"aM c #000000",
"aN c #000000",
"aO c #000000",
"aP c #000000",
"aQ c #000000",
"aR c #000000",
"aS c #000000",
"aT c #000000",
"aU c #000000",
"aV c #000000",
"aW c #000000",
"aX c #000000",
"aY c #000000",
"aZ c #000000",
"a0 c #000000",
"a1 c #000000",
"a2 c #000000",
"a3 c #000000",
"a4 c #000000",
"a5 c #000000",
"a6 c #000000",
"a7 c #000000",
"a8 c #000000",
/* pixels */
"`O`O`O`O`O`O`O`2`O`O`K`Y.j`s.B.E.E.B`s.j`m`K`O`O`2`O`O`O`O`O`O`O",
"`O`O`O`O`O`O`O`O.C`t.G`h`7`J`h.E.E`h`J`7`J`a.j`S`O`O`O`O`O`O`O`O",
"`O`O`O`O`2`O`2`T.E`7`h.E.E`u`u.E.E`u.E`n.E`h`J.E`T`2`O`2`O`O`O`O",
"`O`O`O`2`O`i`o.K`h.E`u.E.E.E.E.E.E.E.E.E.E`u.E`h.K`o`i`O`O`O`O`O",
"`O`O`2`O`b.A`J`u.E.E.E.E.E.E.E.E.E.E.E.E.E.E.E.E.E`J.k`b`O`2`O`O",
"`O`2`O.h.G`J`d`U.E.E.E.E.E.E.E.E.E.E.E.E.E`x`x`x.E`u`h.A.h`O`2`O",
"`O`O.i.b.K.E.A.H`x.E.E.E.E.E.E.E`h.E.E`h`u`6`8.q.E.E`u`J`o`2`O`O",
"`O`O.D`7`d`Q.f.t`6`h`x`u`h.E.E.E.E.E.E`u.y```````4`u`U`u`J`c`O`2",
"`O`p.E`h`Q`M.#.e```Q`0`x.E.E.E`h.E.E`u`l`C`g.c.d``.E`Q`U.E.E.o`O",
"`O`3`7.E.l```5.p`I`F```0`v`h.E.E.E`x`v.t.e`2`O`O`I```v`Q.E`7.j`O",
".a.k`h.E`v.t`q`O`O`K`.``.t`4`v.E.E`h`Q`l.v`2`O`O.i`E.``0.E`h`a.F",
".g`7`u`U`4`F`q`2`O`O`O`A`k```l.H`v`x`Q`l.v.i`O`O`O`L```0.E.E`J`m",
".j`J`u`U`4.``5`O`O`2`O`O.i.c.y```v`C`h`l.v`r`O`O`O`L```0.E.E`7.j",
"`f`J.E.E`Q.f.#`K`O`O`O`2`O`O`K..`````8.f.e`2`O`O`O`L```0`h`d`7`s",
"`a`h.E.E`U`v.t`4.m.i`O`O`2`O`O`O`A`E```l`k`r`O`O`2`L```0.E.E`J.B",
".E.E.E.E`u.f.L`M``.J`N`O`O`O`2`O`O`r.w`M```L`W`O`O.d```0.E.E.E.E",
".E.E.E.E`v.``5`V`y````.u`V`O`O`O`2`O`O.a..````.c`B`.```0`U.E.E.E",
"`R`h.E`U`4.``q`O`O.z`q```u`w`2`O`O`O`O`O`O`N.v```#`H.f.E.E`u`h`R",
"`f`J`u`U`4`F`q`2`O`O`r`q`````E`N`O`O`O`O`O`O`2.w`l.t`4.E.E.E`7`s",
".j`7`u`U`v`F`5`2`O`O`2`j```P`F``.u`V`O`O`O`2`O`O`K.e`l`v.E.E`7.j",
"`D`J`u`U`4.``q`2`O`O`2`5```4`4`C```U`w.i`O`O`2`O`O.x```0.E.E`J.g",
".a`n`h`U`v.``5`2`O`O`2.J``.H`x`h`6`M```q.o`O`O`O`2.d```0.E`h`a.F",
"`O`3`7`n`Q.f.L.i`O`O.i`5```0.E.E.y`0`6````.u`e`O`O.d```0.E`7`3`O",
"`O`N.E`h`U`4```I`O`O`O`j``.H`U.E`h`U`h`C`u```M`w.i`.```0`h.E`A`O",
"`O`O.D.K`u.E`h```L`w`I`H`l`Q.E.E.E.E.E`x`v`0`l``.s`k.f`u`7`T`O`2",
"`2`O.i.b`J`n.E`Q```````M`u`U`h.E.E.E.E.E`h.E`v`v.t.f.A`J.b`2`O`O",
"`O`2`O.z`a`J`u.E`v`0`0`u`h.E.E.E.E.E`h.E.E.E.E`h`Q.A`J`Z.h`O`2`O",
"`O`O`2`O`b.G`7.k.E`U`U.E.E.E.E.E`h.E.E.E.E.E`h.E`n`J.G`b`O`2`O`O",
"`O`O`O`2`O.z.b.K.E`u.E.E`h.E.E.E.E.E.E`h.E.E`n.E`J.b.h`O`2`O`O`O",
"`O`O`O`O`2`O.i.D.E`7`h.E`d`u.E.E.E.E`u.E.E`h`J.E.D`r`O`2`O`O`O`O",
"`O`O`O`O`O`2`O`O.o`3`Q`J`7`J`h.E.E`h`J`7`7`u`3`p`O`O`2`O`O`O`O`O",
"`O`O`O`O`O`O`O`O`O`O.a`D.j`f`a.E`u`Z`f`t.g`e`O`O`O`O`O`O`O`O`O`O"
};
