/* XPM */
static char *bitcoin64_result_xpm[] = {
/* width height num_colors chars_per_pixel */
"    64    64      256            2",
/* colors */
"`` c #ec0204",
"`. c #f4828c",
"`# c #ec4254",
"`a c #f4c2c4",
"`b c #ec223c",
"`c c #ec626c",
"`d c #f4a2a4",
"`e c #fce2e4",
"`f c #ec123c",
"`g c #ec728c",
"`h c #ec3244",
"`i c #ec7a8c",
"`j c #f492a4",
"`k c #ec5264",
"`l c #f4b2b4",
"`m c #fcd2d4",
"`n c #ec0224",
"`o c #fcf2f4",
"`p c #f4aaac",
"`q c #ec3a4c",
"`r c #e42a4c",
"`s c #f4163c",
"`t c #f47a84",
"`u c #f48a94",
"`v c #ec4a5c",
"`w c #f4727c",
"`x c #f49a9c",
"`y c #ec5a64",
"`z c #ec0a34",
"`A c #fccacc",
"`B c #fceaec",
"`C c #fcdadc",
"`D c #fcaebc",
"`E c #f47a94",
"`F c #ec4264",
"`G c #e41a3c",
"`H c #ec3254",
"`I c #fcfafc",
"`J c #f4aabc",
"`K c #ec3e5c",
"`L c #f4728c",
"`M c #ec0214",
"`N c #fcc2cc",
"`O c #ec264c",
"`P c #f46a74",
"`Q c #f4a6b4",
"`R c #ec5674",
"`S c #ec0234",
"`T c #ec3e4c",
"`U c #ec2a44",
"`V c #f47e84",
"`W c #f48ea4",
"`X c #f49eac",
"`Y c #f4868c",
"`Z c #ec4654",
"`0 c #ec2644",
"`1 c #f4a6ac",
"`2 c #fce6e4",
"`3 c #ec364c",
"`4 c #f4969c",
"`5 c #ec5664",
"`6 c #f4babc",
"`7 c #fcd6d4",
"`8 c #fcf6f4",
".` c #f4aeb4",
".. c #fc163c",
".# c #f48e94",
".a c #f4767c",
".b c #f49ea4",
".c c #ec5a74",
".d c #ec0e34",
".e c #fceeec",
".f c #fcdedc",
".g c #ec1a3c",
".h c #ec2e44",
".i c #ec020c",
".j c #f4c6cc",
".k c #ec2244",
".l c #f46674",
".m c #f4a2ac",
".n c #ec163c",
".o c #ec768c",
".p c #ec324c",
".q c #ec7e94",
".r c #ec526c",
".s c #ec022c",
".t c #f4aab4",
".u c #ec3a54",
".v c #f47a8c",
".w c #ec4e5c",
".x c #f49aa4",
".y c #ec5a6c",
".z c #fcced4",
".A c #f47e94",
".B c #ec4664",
".C c #ec3654",
".D c #fcfefc",
".E c #f4aebc",
".F c #f4768c",
".G c #ec021c",
".H c #fcc6cc",
".I c #f46e7c",
".J c #ec0634",
".K c #ec3e54",
".L c #ec2a4c",
".M c #f47e8c",
".N c #f48694",
".O c #ec465c",
".P c #fce6ec",
".Q c #f496a4",
".R c #f4bec4",
".S c #fcd6dc",
".T c #fcf6fc",
".U c #fc1a3c",
".V c #f48e9c",
".W c #f47684",
".X c #ec0e3c",
".Y c #fceef4",
".Z c #fcdee4",
".0 c #ec1e3c",
".1 c #000000",
".2 c #000000",
".3 c #000000",
".4 c #000000",
".5 c #000000",
".6 c #000000",
".7 c #000000",
".8 c #000000",
"#` c #000000",
"#. c #000000",
"## c #000000",
"#a c #000000",
"#b c #000000",
"#c c #000000",
"#d c #000000",
"#e c #000000",
"#f c #000000",
"#g c #000000",
"#h c #000000",
"#i c #000000",
"#j c #000000",
"#k c #000000",
"#l c #000000",
"#m c #000000",
"#n c #000000",
"#o c #000000",
"#p c #000000",
"#q c #000000",
"#r c #000000",
"#s c #000000",
"#t c #000000",
"#u c #000000",
"#v c #000000",
"#w c #000000",
"#x c #000000",
"#y c #000000",
"#z c #000000",
"#A c #000000",
"#B c #000000",
"#C c #000000",
"#D c #000000",
"#E c #000000",
"#F c #000000",
"#G c #000000",
"#H c #000000",
"#I c #000000",
"#J c #000000",
"#K c #000000",
"#L c #000000",
"#M c #000000",
"#N c #000000",
"#O c #000000",
"#P c #000000",
"#Q c #000000",
"#R c #000000",
"#S c #000000",
"#T c #000000",
"#U c #000000",
"#V c #000000",
"#W c #000000",
"#X c #000000",
"#Y c #000000",
"#Z c #000000",
"#0 c #000000",
"#1 c #000000",
"#2 c #000000",
"#3 c #000000",
"#4 c #000000",
"#5 c #000000",
"#6 c #000000",
"#7 c #000000",
"#8 c #000000",
"a` c #000000",
"a. c #000000",
"a# c #000000",
"aa c #000000",
"ab c #000000",
"ac c #000000",
"ad c #000000",
"ae c #000000",
"af c #000000",
"ag c #000000",
"ah c #000000",
"ai c #000000",
"aj c #000000",
"ak c #000000",
"al c #000000",
"am c #000000",
"an c #000000",
"ao c #000000",
"ap c #000000",
"aq c #000000",
"ar c #000000",
"as c #000000",
"at c #000000",
"au c #000000",
"av c #000000",
"aw c #000000",
"ax c #000000",
"ay c #000000",
"az c #000000",
"aA c #000000",
"aB c #000000",
"aC c #000000",
"aD c #000000",
"aE c #000000",
"aF c #000000",
"aG c #000000",
"aH c #000000",
"aI c #000000",
"aJ c #000000",
"aK c #000000",
"aL c #000000",
"aM c #000000",
"aN c #000000",
"aO c #000000",
"aP c #000000",
"aQ c #000000",
"aR c #000000",
"aS c #000000",
"aT c #000000",
"aU c #000000",
"aV c #000000",
"aW c #000000",
"aX c #000000",
"aY c #000000",
"aZ c #000000",
"a0 c #000000",
"a1 c #000000",
"a2 c #000000",
"a3 c #000000",
"a4 c #000000",
"a5 c #000000",
"a6 c #000000",
"a7 c #000000",
"a8 c #000000",
/* pixels */
".D.D.D.D.D.D.D.D.D.D.D.D.D.D.D.D.D.D`I.D.D.D.D.D`C`D.q`R`K`r.g.n.n.g.L`K`R.q`D.S.D.D.D.D.D`I.D.D.D.D.D.D.D.D.D.D.D.D.D.D.D.D.D.D",
".D.D.D.D.D.D.D.D.D.D.D.D.D.D.D.D`I.D.D.D`I`N.F.C.n...U....`s.n.n.n.n`s`s.U.....n.C.F`N`I.D.D.D`I.D.D.D.D.D.D.D.D.D.D.D.D.D.D.D.D",
".D.D.D.D.D.D.D.D.D.D.D.D.D.D.D`I.D.D.P`W.C`s.U...n.g.n.g.g.n.n.n`s.n.g.n.n.g.g.n...U...C`W`e.D.D`I.D.D.D.D.D.D.D.D.D.D.D.D.D.D.D",
".D.D.D.D.D.D.D.D.D.D.D.D.D`I.D.D.P.A.k.....g.g.n.n.n.n.n.n.n.n.n.n.n.n.n.n.n.n.n.n`G.n.....k`E.P.D.D`I.D.D.D.D.D.D.D.D.D.D.D.D.D",
".D.D.D.D.D.D.D.D.D.D.D.D`I.D.D`j.k..`s.g.g.n.n.n.n.n.n.n.n.n.n.n.n.n.n.n.n.n.n.n.n.n.n`G.g`s.U`O`j.D.D`I.D.D.D.D.D.D.D.D.D.D.D.D",
".D.D.D.D.D.D.D.D.D.D.D.D.D.S`F.U...g.n.n.n.n.n.n.n.n.n.n.n`s.n.n`s.n.n`s.n.n`s.n.n.n.n`s.n.n.n`s.U`F.S.D.D.D.D.D.D.D.D.D.D.D.D.D",
".D.D.D.D.D.D.D.D.D.D.D.D.m`s...n.g.n.n.n.n.n.n.n`s.n.n`s.n.n.n.n.n.n.n.n.n.n.n.n.n`s.n.n.n.n.n.g.n...n.m.D.D.D.D.D.D.D.D.D.D.D.D",
".D.D.D.D.D.D.D.D`I.D.D.F.U`s.g.n.n.n.n.n.n.n`s.n.n.n.n.n.n.n.n.n.n.n.n.n.n.n.n`s.n.n.n.n.n.n.n.n.n.g`s...F.D.D`I.D.D.D.D.D.D.D.D",
".D.D.D.D.D.D.D`I.D.D.c.U.n.n.n.n.n.n.n.n`s.n.n.n.n.n.n.n.n`s.n.n`s.n.n`s.n.n.n.n.n.n.n.n.n.n.n.n.n.n.n.g...c.D.D`I.D.D.D.D.D.D.D",
".D.D.D.D.D.D.D.D.D.r.U.n.n.n.n.n.n.n`s.n.n.n.n.n`s.n.n`s.n.n.n.n.n.n.n.n.n.n`s.n.n.n.n.n.n.n.n.n.n.n.n.n.g...r.D.D.D.D.D.D.D.D.D",
".D.D.D.D.D.D.D.D.c.U.g.n.n.n.n.n`s.n.n.n.n.n`s.n.n.n.n.n.n.n.n.n.n.n.n.n`s.n.n.n.n`s.n.n`s.n.n`s.n.n.n.n.n.g...c.D.D.D.D.D.D.D.D",
".D.D.D.D.D.D.D.F...n.n.n.n.n.n.n.n.n.n.n`s.n.n.n.n.n.n.n.n`s.n.n`s.n.n.n.n.n.n.n.n.n.n.n.n.n.n.n.n.n`s.n.n.n.g..`L.D.D.D.D.D.D.D",
".D.D.D.D`I.D.m...g.n.n.n.n.n`s.n.n.n`s.n.n.n.n.n`s.n.n`s.n.n.n.n.n.n.n`s.n.n.n`s.n.n.n.n.n.n.n.n`s.n.n.n.n.n.n.g..`X.D`I.D.D.D.D",
".D.D.D`I.D.S.n`s.n.n.n.n.n.n.n.n.n.n.n.n.n.n`s.n.n.n.n.n.n.n.n.n.n`s.n.n.n.n.n.n.n.n`s.d.n`s.n.n.n.n.n.n.n.n.n.g`s.g.S.D`I.D.D.D",
".D.D.D.D.D`F...g.n.n.n.n`s.g.n.d`s.n.n.n`s.n.n.n.n.n.n.n.n`s.n.n.n.n.n.n.n`s.n.n.n.n`b`b`b`b.g.d.g.n`s.n.n`s.n.n.n.U.B.D.D.D.D.D",
".D.D`I.D`j...g.n.n.n.n.n.n.n.h`0.d.g.n.n.n.n.n.n`s.n.n`s.n.n.n.n`s.n.n.n.n.n.n.n`s.n`n.s.s`z`U`h`s.n.n.n.n.n.n.n.n.g...Q.D.D.D.D",
".D`I.D.P`O...n.n.n.n`s.n.g.s```s`h.d`s.n.n.n`s.n.n.n.n.n.n.n.n.n.n.n.n`s.n.n.n.n.n.d`n`n.s.G````.h.g.n.n.n.n.n.n.n.n`s.k.P.D.D.D",
".D.D.D`E.U.n.n.n.n.n`f`b`M.l`x`````3`b`z.n.n.n.n.n.n.n.n.n`s.n.n.n`s.n.n.n.n`s.0.G`Z`m`C.S`m`6.l```b.n`s.n.n`s.n.n.n.g.U.A.D.D.D",
"`I.D`e.k`s.g.n.n.n.n.d`U```V.D`7`P``.s`3`s.d.g.n`s.n.n`s.n.n.n.n.n.n.n.n.n.n.n.0.G`5.D.D.D.D.D`8.b```U.d.g.n.n.n.n.n.n`s.k.P.D.D",
".D.D`W.U.n.n.n.n.n`s.n`0``.a.D.D`I`6.k```0`b.n.n.n.n.n.n.n.n.n`s.n.n.n`s.n.n.n.0.G`k`8.D`I.D.D.D.D.#```h.d.n.n`s.n.n.n`G..`W.D.D",
".D`I.C..`G.n.n`s.n.n.d`U```t.D.D.D.D.e`4`````b`b`s.n.n.n.n`s.n.n.n.n.n.n.n.n`s.0.G`k`I.D.D.D.D.D.D.P.s`s.0.n.n.n.n.n`s.g`s`H.D.D",
".D`N`s.g.n`s.n.n.n.n.d`U```t.D.D.D.D.D.D.S.l```n`U`b.d`s.n.n.n.n.n`s.n.n.n.n.n.0.G`k`I.D.D.D.D.D.D.D`V```3.d`s.n.n.n.n.n.n.U`N.D",
".D.F.U.g.n.n.n.n.n`s.n`0``.a.D.D.D.D.D.D.D.D`6`3``.d`h.g.d.g.n`s.n.n.n.n`s.n.n.0.G`k`I.D.D.D.D.D.D.D.x```3.d.n.n.n.n.n.n.g..`w.D",
".D.C..`G`s.n.n.n.n.n.d`U```t.D.D.D.D.D.D.D.D.D`B`x.G``.h.h`z.n.n.n.n.n.n.n.n.n.0.G`k`I.D.D.D.D.D.D.D`4```3.d.n`s.n.n`s.n.n`s.C.D",
".S.n.n.n.n.n.n`s.n.n.n`b``.W.D.D.D.D.D.D.D.D`I.D.D.S`w``.G`q`s.d.g.n`s.n.n.n`s.0.G`k`I.D.D.D.D.D.D.D`4```3.d.n.n.n.n.n.n.n`s.n.S",
"`J.U.n.n.n.n.n.n.n.n`s`U```t.D.D.D.D.D.D.D.D.D.D.D.D`I.R`q```0.h`z.n.n.n.n.n.n.0.G`k`I.D.D.D.D.D.D.D.x```3.d`s.n.n.n.n.n.n.n...t",
".A...g.n.n`s.n.n.n.n.d`b``.a.D.D.D.D.D.D.D.D.D.D.D.D.D.D.e.x`````h.0`s.n.n`s.n.0.G`k`I.D.D.D.D.D.D.D`x```3.d.n.n.n`s.n.n.n.g..`i",
"`R.U.n.n.n.n.n.n`s.n.g.g`f.n`p.T.D.D.D.D.D.D.D.D.D.D.D.D.D.D`C.I```n`0.0.n.n.d.0.G`k`8.D.D.D.D.D.D.D`x```3.d`s.n.n.n.n.n`s.n..`R",
"`K`s.g.n.n.n`s.n.n.n.n`s.g`f``.w.z.D.D.D.D.D.D.D.D.D.D.D.D.D.D.D`N`h```z`U.0`s.0.G`5`I.D.D.D.D.D.D.D.x```3.d.n.n.n.n`s.n.n.n`s.K",
"`r`s.n.n.n.n.n.n.n.n.n.n.d.0`q`n```Y.P.D.D.D.D.D.D.D.D.D.D.D.D.D.D.Y`x`M```b.h.n.s.K.e.D.D.D.D.D.D.D`x```3.d`s.n.n.n.n.n.n.g`s`U",
".g.n.n`s.n.n.n.n`s.n.n.n.0`n```3`q```n`D`8.D.D.D.D.D.D.D.D.D.D.D.D.D.D`C`w```M`3`U`n.w`A.D.D.D.D.D.D`x```3.d.n.n`s.n.n.n.n.n.n.g",
".n`s.n.n.n.n`s.n.n.n.n.0.G`k.l``.s`Z`s```y`A.D.D.D.D.D.D.D.D.D.D.D.D.D.D.D`N`Z```s`T.G```..Z.D.D.D.D.x```3.d`s.n.n.n.n.n.n.n.n.n",
".n.n.n.n.n.n.n.n.n.n.d`U```V`8`D`S```3`#````.N`e.D.D.D.D.D.D.D.D.D.D.D`I.D.D`B`d`M```#`3```S`1`o.D.D`4```3.d.n.n.n.n`s.n.n`s.n.n",
".g.n.n`s.n.n.n.n`s.n`s`b``.a.D.D`e`u```M`#`0``.n`p.T.D.D.D.D.D.D.D.D.D.D.D`I.D.D`C.W``.s`#.s```v.H.D.b```q.d.n.n`s.n.n.n.n.n.n.g",
".L`s.n.n.n.n`s.n.n.n.d`U```t.D.D.D.D.z`5``.n`3.s``.w`A.D.D.D.D.D.D.D.D.D.D.D.D.D.D.D`N`3``.h`3.i```..W```U`s.n.n.n.n.n.n.n.g`s`U",
"`K`s.g.n.n.n.n.n.n.n.d`U``.W.D.D.D.D.D`I`D.s`n`U`0.G``.M`2.D.D.D.D.D.D.D.D.D.D.D.D.D.D`o.b.i``.h`U```n.0`f.n.n.n.n.n`s.n.n.n...K",
"`R.U.n.n.n`s.n.n.n.n`s`b```t.D.D.D.D.D.D.D.P`k.G`U.0`0``.G.t`8.D.D.D.D.D.D.D.D.D.D.D.D.D.D.Z.a``.G`h`0.d.n.n`s.n.n.n.n.n.n.g..`R",
".A.U.n.n.n.n.n.n`s.n.d`U```t.D.D.D.D.D.D.D.D`.``.p.d`s`0.0``.w`A.D.D.D.D.D.D.D.D.D.D.D.D.D.D.D`N.O``.s.0`s.n.n.n.n`s.n.n.n.n..`t",
"`D...g.n.n.n`s.n.n.n.n`U```t.D.D.D.D.D.D.D.D`t```h.X`s.d.g`3.G```Y`e.D.D.D.D.D.D.D.D.D.D.D.D.D.D`o.b.k`s.g`f.n.n.n.n.n.n`s.g..`1",
"`C.n.n.n.n.n.n.n.n.n.d`U```t.D.D.D.D.D.D.D.D`V``.p.d.n.n.n.J.h.h```S`1`o.D.D.D.D.D.D.D.D.D.D.D`I.D.D.#```3.d.n.n`s.n.n.n.n.n.n.S",
"`I.C...n.n.n.n.n`s.n.d`U```t.D.D.D.D.D.D.D.D.v```h.d`s.n.n`s.d`s`q.s```k.H.D.D.D.D.D.D.D.D.D.D.D.D.D.x```q.d.n.n.n.n.n.n.n..`3.D",
".D.F.U`G`s.n.n.n.n.n`s`b```t.D.D.D.D.D.D.D.D`V``.p.d.g.n.n.n.g.n.d`0.h`M```V`e.D.D.D.D.D.D.D.D.D.D.D`4```3.d`s.n.n.n`s.n.g.U`g.D",
".D`N`s.n.n.n.n`s.n.n.d`U```t.D.D.D.D.D.D.D.D`t```h.X`s.n.n`s.n.n.n`s.n`U.0```n.m`8.D.D.D.D.D.D.D.D.D`x```3.d.n.n.n.n.n.n.n..`N.D",
".D`I.C.U.g.n.n.n.n.n.n`b``.a.D.D.D.D.D.D.D.D.M```h.d.n.n.n.n.n.n.n.n.n.n`s`0.n```#`A.D.D.D.D.D.D.D.D.x```3.d`s.n.n`s.n.g`s`h.D.D",
".D.D`W...n.n.n.n.n`s.d`b`M`c.D.D.D.D.D.D.D.D`t``.p.d`s.n.n.n`s.n.n.n`s.n.n.n.n.h`n``.M`e.D.D.D.D.D.D`4```3.d.n.n.n.n.n.g.U`u.D.D",
"`I.D`e.k`s.g.n.n.n.n.g.n.g.G`e.D`I.D.D.D.D.D`V```h.d.g.n`s.n.n.n.n.n.n.n.n.n`s.d`b`3```n`p`o.D.D.D.D.x```3.d`s.n.n.n.g`s`b.P.D.D",
".D.D.D.A.U.n.n.n.n.n`s.n`0```u.D.D`I.D.D.D.D`t``.p.d`s.n.n.n.n.n`s.n.n.n`s.n.n.n`f.d`3.n```k`N.D.D.D`4```3.d.n.n.n`s`G...M.D.D.D",
".D`I.D.P.k`s.g.n.n.n.n.n.n`b```1.D.D.D.D.D.D.M```3.d.n.n.n.n`s.n.n.n.n.n.n.n.n.n`s.g`z`0`3`````t`e.D.b```q.d.n`s.n.n`s`b.P.D.D.D",
".D.D`I.D`j...n.n.n`s.n.n`s.g.0``.a.H.P`B`B`B`w``.h.d.n.n`s.n.n.n.n.n`s.n.n.n`s.n.n.n`s`f`s.h`b``.s`p.N``.h`s.n.n.g.g.U.Q.D.D.D.D",
".D.D.D.D.D.B...g.n.n.n.n.n.d.0`b````.s.n`s`f.n.n.n`s.n.n.n.n.n.n`s.n.n.n.n.n.n.n.n.n.n.n.n.d.0`U.s``.s.0`f.n.n.n.n...O.D.D`I.D.D",
".D.D.D`I.D.S.n`s.n.n.n.n.n`s.n.g`b.0.d`S`S`S`f.n.n.n.n.n.n.n`s.n.n.n.n.n`s.n.n.n.n.n.n.n.n`s.n.n.0`b`s.n.n.n.n.n`s.g`7.D`I.D.D.D",
".D.D.D.D`I.D.m.U.n.n.n.n.n.n.n.n`s.g.n`s.g.g.n.n.n.n`s.n.n.n.n.n.n.n`s.n.n.n.n`s.n.n`s.n.n.n.n`s.n.n.n.n.n`s.n.n.U.b.D`I.D.D.D.D",
".D.D.D.D.D.D.D.F.U.g.n.n.n.n`s.n.n.n.n.n.n.n`s.n.n.n.n.n.n`s.n.n.n.n.n.n.n.n.n.n.n.n.n.n.n.n.n.n.n.n.n`s.n.n.g...o.D.D.D.D.D.D.D",
".D.D.D.D.D.D.D.D.c...g.n.n.n.n.n.n.n.n.n`s.n.n.n.n`s.n.n.n.n.n.n`s.n.n.n`s.n.n.n.n.n.n`s.n.n.n.n`s.n.n.n.n.n.U.y.D.D.D.D.D.D.D.D",
".D.D.D.D.D.D`I.D.D.r...g.n.n.n.n`s.n.n.n.n.n.n.n.n.n.n.n.n.n`s.n.n.n.n.n.n.n.n`s.n.n.n.n.n.n`s.n.n.n.n.n.n.U.w.D.D`I.D.D.D.D.D.D",
".D.D.D.D.D.D.D`I.D.D.c...g.n.n.n.n.n.n`s.n.n.n`s.n.n.n`s.n.n.n.n.n.n`s.n.n.n.n.n.n.n`s.n.n.n.n.n.n.n.n.g...y.D.D`I.D.D.D.D.D.D.D",
".D.D.D.D.D.D.D.D`I.D.D.F.U`s.g.n.n`s.n.n.n.n.n.n.n.n.n.n.n.n.n.n`s.n.n.n.n`s.n.n.n.n.n.n.n.n.n.n.n.n`s.U.W.D.D`I.D.D.D.D.D.D.D.D",
".D.D.D.D.D.D.D.D.D.D.D.D.m.n...n.g.n.n.n.n.n`s.n.n`s.n.n.n`s.n.n.n.n.n.n.n.n.n.n`s.n.n.n`s.n.n.g.n...n`d.D.D.D.D.D.D.D.D.D.D.D.D",
".D.D.D.D.D.D.D.D.D.D.D.D.D.S`#.U`s.g.n.n.n.n.n.n.n.n.n.n.n.n.n.n.n.n`s.n.n.n`s.n.n.n.n`s.n.n.g`s..`Z`7.D.D.D.D.D.D.D.D.D.D.D.D.D",
".D.D.D.D.D.D.D.D.D.D.D.D`I.D.D`j.k.U`s.g.g.n.n.n.n.n`s.n.n.n`s.n.n.n.n.n.n.n.n.n.n`s.n`G.n`s.U`b`j.D.D`I.D.D.D.D.D.D.D.D.D.D.D.D",
".D.D.D.D.D.D.D.D.D.D.D.D.D`I.D.D`2.M.k.....g.g.n.g.n.n`s.n.n.n.n.n`s.n.n`s.n.n.n.n`G.n...U`b.M`2.D.D`I.D.D.D.D.D.D.D.D.D.D.D.D.D",
".D.D.D.D.D.D.D.D.D.D.D.D.D.D.D`I.D.D`e.V.C`s.U...n.n.g.n.g.n.n.n.n.n.n.g.n.g.n.n.U...U`3.V`e.D.D`I`I.D.D.D.D.D.D.D.D.D.D.D.D.D.D",
".D.D.D.D.D.D.D.D.D.D.D.D.D.D.D.D`I.D.D.D`I`N.o`3.n...U....`s.n.n`s.n`s...U...U.n`3.o`N`8.D.D.D`I.D.D.D.D.D.D.D.D.D.D.D.D.D.D.D.D",
".D.D.D.D.D.D.D.D.D.D.D.D.D.D.D.D.D.D`I.D.D.D.D`I`C`p.M`R.K`r.g.n.n.n`U.K`R`i`D`7.D.D.D.D.D`I.D.D.D.D.D.D.D.D.D.D.D.D.D.D.D.D.D.D"
};
