/* XPM */
static char *bitcoin16_result_xpm[] = {
/* width height num_colors chars_per_pixel */
"    16    16      256            2",
/* colors */
"`` c #ffffff",
"`. c #fffcfd",
"`# c #fefeff",
"`a c #e5b9c9",
"`b c #d05273",
"`c c #d72b51",
"`d c #e81a3e",
"`e c #e6183e",
"`f c #d62c51",
"`g c #d15173",
"`h c #e4b8c8",
"`i c #fefcfd",
"`j c #fdfbfc",
"`k c #f8f7f9",
"`l c #d45c7a",
"`m c #f4163b",
"`n c #fb163d",
"`o c #f7173d",
"`p c #f0163b",
"`q c #f7153c",
"`r c #fb1e40",
"`s c #f42140",
"`t c #d65879",
"`u c #f5f8f9",
"`v c #f7f7fa",
"`w c #d63a60",
"`x c #ff2043",
"`y c #ec2d46",
"`z c #eb1c3d",
"`A c #ec1138",
"`B c #ec183b",
"`C c #ed173b",
"`D c #ec193c",
"`E c #eb0b38",
"`F c #ec173b",
"`G c #ff2545",
"`H c #d73a5e",
"`I c #f7f8f9",
"`J c #d3597a",
"`K c #ff2244",
"`L c #e6011c",
"`M c #eb0000",
"`N c #ed2d45",
"`O c #ed0b37",
"`P c #ed1439",
"`Q c #ed1a3b",
"`R c #ec002f",
"`S c #ec0000",
"`T c #e80024",
"`U c #ff1f43",
"`V c #d55877",
"`W c #e3bdcb",
"`X c #f6143b",
"`Y c #eb0026",
"`Z c #f18c92",
"`0 c #f17981",
"`1 c #ec0029",
"`2 c #ed3b4e",
"`3 c #ed2842",
"`4 c #f39fa4",
"`5 c #f9d3d5",
"`6 c #ee5f6b",
"`7 c #ec0021",
"`8 c #f3203f",
".` c #e3b5c6",
".. c #d15b7a",
".# c #ff2645",
".a c #e70001",
".b c #f9cfd1",
".c c #fefefe",
".d c #f5adb1",
".e c #ed2642",
".f c #ed394d",
".g c #f6bbbf",
".h c #f6bdc1",
".i c #ea0000",
".j c #fb2443",
".k c #d05274",
".l c #d82f53",
".m c #f72d47",
".n c #e90000",
".o c #f5b1b5",
".p c #fbe4e5",
".q c #f29298",
".r c #f7c1c4",
".s c #f82141",
".t c #d62d53",
".u c #e7193d",
".v c #ef183b",
".w c #ec1f3f",
".x c #ed3148",
".y c #f29197",
".z c #fdf1f1",
".A c #f9d4d6",
".B c #ee4c5c",
".C c #f0707a",
".D c #f8ced0",
".E c #f0203f",
".F c #e81c3f",
".G c #e72040",
".H c #ef1b3c",
".I c #f6b9bc",
".J c #f6bbbe",
".K c #ee4a5a",
".L c #f7c3c5",
".M c #fefbfb",
".N c #f4a7ac",
".O c #ef6a75",
".P c #f1848c",
".Q c #eb0032",
".R c #f0153a",
".S c #e71b40",
".T c #d73051",
".U c #f72844",
".V c #f5b3b7",
".W c #f07c84",
".X c #fae0e2",
".Y c #fbe6e7",
".Z c #f06f79",
".0 c #eb0025",
".1 c #d62c50",
".2 c #d05b79",
".3 c #ff2746",
".4 c #e60001",
".5 c #f8c1c4",
".6 c #f6c0c3",
".7 c #ec000c",
".8 c #f4a8ac",
"#` c #fceced",
"#. c #f8d0d2",
"## c #fb2342",
"#a c #d15375",
"#b c #f62e47",
"#c c #f29a9f",
"#d c #ed354a",
"#e c #ed233f",
"#f c #ed3b4f",
"#g c #f5bdc1",
"#h c #f31c3e",
"#i c #e4b8c9",
"#j c #d5627f",
"#k c #ff0e3d",
"#l c #e40130",
"#m c #f08189",
"#n c #f16e78",
"#o c #ed002a",
"#p c #ed1038",
"#q c #ed1d3d",
"#r c #ee3b4f",
"#s c #ed0000",
"#t c #ec0003",
"#u c #e75061",
"#v c #ff163f",
"#w c #d45577",
"#x c #f8f5f8",
"#y c #d74263",
"#z c #ff1941",
"#A c #e70009",
"#B c #eb203f",
"#C c #ec163b",
"#D c #ec143a",
"#E c #eb0837",
"#F c #e9354c",
"#G c #ec2340",
"#H c #ff0028",
"#I c #d64061",
"#J c #f8f7fa",
"#K c #fffbfc",
"#L c #d5627e",
"#M c #f7364d",
"#N c #ff2b48",
"#O c #f7133b",
"#P c #ef163b",
"#Q c #f7193d",
"#R c #ff0d3b",
"#S c #f62141",
"#T c #d66a82",
"#U c #f7f6f9",
"#V c #e3b5c8",
"#W c #d05375",
"#X c #d82a4f",
"#Y c #e7183d",
"#Z c #e8183d",
"#0 c #d7294f",
"#1 c #d15676",
"#2 c #e4b9ca",
"#3 c #000000",
"#4 c #000000",
"#5 c #000000",
"#6 c #000000",
"#7 c #000000",
"#8 c #000000",
"a` c #000000",
"a. c #000000",
"a# c #000000",
"aa c #000000",
"ab c #000000",
"ac c #000000",
"ad c #000000",
"ae c #000000",
"af c #000000",
"ag c #000000",
"ah c #000000",
"ai c #000000",
"aj c #000000",
"ak c #000000",
"al c #000000",
"am c #000000",
"an c #000000",
"ao c #000000",
"ap c #000000",
"aq c #000000",
"ar c #000000",
"as c #000000",
"at c #000000",
"au c #000000",
"av c #000000",
"aw c #000000",
"ax c #000000",
"ay c #000000",
"az c #000000",
"aA c #000000",
"aB c #000000",
"aC c #000000",
"aD c #000000",
"aE c #000000",
"aF c #000000",
"aG c #000000",
"aH c #000000",
"aI c #000000",
"aJ c #000000",
"aK c #000000",
"aL c #000000",
"aM c #000000",
"aN c #000000",
"aO c #000000",
"aP c #000000",
"aQ c #000000",
"aR c #000000",
"aS c #000000",
"aT c #000000",
"aU c #000000",
"aV c #000000",
"aW c #000000",
"aX c #000000",
"aY c #000000",
"aZ c #000000",
"a0 c #000000",
"a1 c #000000",
"a2 c #000000",
"a3 c #000000",
"a4 c #000000",
"a5 c #000000",
"a6 c #000000",
"a7 c #000000",
"a8 c #000000",
/* pixels */
"```.```#`a`b`c`d`e`f`g`h`#```i``",
"`j```k`l`m`n`o`p`p`q`r`s`t`u```.",
"```v`w`x`y`z`A`B`C`D`E`F`G`H`I``",
"```J`K`L`M`N`N`O`P`Q`R`S`T`U`V``",
"`W`X`Y`Z`0`M`1`2`3`S`4`5`6`7`8.`",
"...#.a.b.c.d.e`M.f`S.g``.h.i.j.k",
".l.m.n.o````.p.q`S`M.r``.r.i.s.t",
".u.v.w.x.y.z````.A.B.C``.D.i.E.F",
".G.H`M.I.J.K.L````.M.N.O.P.Q.R.S",
".T.U.n.r``.V.i.W.X````.Y.Z.0.s.1",
".2.3.4.5`#.6`S`S.7.8#```#..i###a",
"`W#b.n#c``.6`M#d#e`M#f`5#g`M#h#i",
"``#j#k#l#m#n#o#p#q#r#s#t#u#v#w``",
"``#x#y#z.n#A#B#C#D#E#F#G#H#I#J``",
"#K``#x#L#M#N#O#P#P#Q#R#S#T#U```.",
"```j```##V#W#X#Y#Z#0#1#2`#```j``"
};
